<?xml version="1.0" encoding="utf-8"?>
<!-- Generator: Adobe Illustrator 19.2.1, SVG Export Plug-In . SVG Version: 6.00 Build 0)  -->
<svg version="1.1" xmlns="http://www.w3.org/2000/svg" xmlns:xlink="http://www.w3.org/1999/xlink" x="0px" y="0px"
	 viewBox="0 0 1800 1800" style="enable-background:new 0 0 1800 1800;" xml:space="preserve">
<style type="text/css">
	.st0{fill:#D80027;}
</style>
<g id="Layer_2">
</g>
<g id="Capa_1">
	<g>
		<path class="st0" d="M1124.3,695.7c-45.2-45.2-118.8-45.2-164,0l-88.8,88.8c-3.8,3.8-3.8,9.9,0,13.7c3.8,3.8,9.9,3.8,13.7,0
			l88.8-88.8c18.2-18.2,42.4-28.2,68.3-28.2c25.9,0,50.2,10,68.3,28.2c18.2,18.2,28.2,42.4,28.2,68.3c0,25.9-10,50.2-28.2,68.3
			L994.4,962.3c-37.7,37.7-99,37.7-136.7,0c-3.8-3.8-9.9-3.8-13.7,0s-3.8,9.9,0,13.7c22.6,22.6,52.3,33.9,82,33.9s59.4-11.3,82-33.9
			l116.2-116.2c21.8-21.8,33.8-50.9,33.8-82C1158.1,746.7,1146.1,717.6,1124.3,695.7z"/>
		<path class="st0" d="M905.6,1051.1l-75.2,75.2c-18.2,18.2-42.4,28.2-68.3,28.2s-50.2-10-68.3-28.2c-37.7-37.7-37.7-99,0-136.7
			l109.4-109.4c37.7-37.7,99-37.7,136.7,0c3.8,3.8,9.9,3.8,13.7,0c3.8-3.8,3.8-9.9,0-13.7c-45.2-45.2-118.8-45.2-164,0L680,976
			c-21.8,21.8-33.8,50.9-33.8,82s12,60.2,33.8,82s50.9,33.8,82,33.8c31.1,0,60.2-12,82-33.8l75.2-75.2c3.8-3.8,3.8-9.9,0-13.7
			C915.4,1047.3,909.4,1047.4,905.6,1051.1z"/>
		<path class="st0" d="M974.5,1087.2c-5.3,0-9.7,4.3-9.7,9.7v58c0,5.3,4.3,9.7,9.7,9.7c5.3,0,9.7-4.3,9.7-9.7v-58
			C984.1,1091.5,979.8,1087.2,974.5,1087.2z"/>
		<path class="st0" d="M1017.6,1070.7c-3.8-3.8-9.9-3.8-13.7,0c-3.8,3.8-3.8,9.9,0,13.7l41,41c1.9,1.9,4.4,2.8,6.8,2.8
			s4.9-0.9,6.8-2.8c3.8-3.8,3.8-9.9,0-13.7L1017.6,1070.7z"/>
		<path class="st0" d="M1080.8,1029.2h-58c-5.3,0-9.7,4.3-9.7,9.7c0,5.3,4.3,9.7,9.7,9.7h58c5.3,0,9.7-4.3,9.7-9.7
			C1090.5,1033.5,1086.1,1029.2,1080.8,1029.2z"/>
		<path class="st0" d="M800.5,768.2c5.3,0,9.7-4.3,9.7-9.7v-58c0-5.3-4.3-9.7-9.7-9.7c-5.3,0-9.7,4.3-9.7,9.7v58
			C790.8,763.9,795.2,768.2,800.5,768.2z"/>
		<path class="st0" d="M757.3,784.7c1.9,1.9,4.4,2.8,6.8,2.8c2.5,0,4.9-0.9,6.8-2.8c3.8-3.8,3.8-9.9,0-13.7l-41-41
			c-3.8-3.8-9.9-3.8-13.7,0c-3.8,3.8-3.8,9.9,0,13.7L757.3,784.7z"/>
		<path class="st0" d="M694.2,826.2h58c5.3,0,9.7-4.3,9.7-9.7c0-5.3-4.3-9.7-9.7-9.7h-58c-5.3,0-9.7,4.3-9.7,9.7
			C684.5,821.9,688.9,826.2,694.2,826.2z"/>
	</g>
</g>
</svg>
