<?xml version="1.0" encoding="utf-8"?>
<!-- Generator: Adobe Illustrator 19.2.1, SVG Export Plug-In . SVG Version: 6.00 Build 0)  -->
<svg version="1.1" id="Capa_1" xmlns="http://www.w3.org/2000/svg" xmlns:xlink="http://www.w3.org/1999/xlink" x="0px" y="0px"
	 viewBox="0 0 1800 1800" style="enable-background:new 0 0 1800 1800;" xml:space="preserve">
<style type="text/css">
	.st0{fill:#D80027;}
</style>
<g>
	<path class="st0" d="M900,644c-141.2,0-256,114.8-256,256s114.8,256,256,256s256-114.8,256-256S1041.2,644,900,644z M900,1136.3
		c-130.3,0-236.3-106-236.3-236.3s106-236.3,236.3-236.3s236.3,106,236.3,236.3S1030.3,1136.3,900,1136.3z"/>
	<path class="st0" d="M900,1008.3c-5.4,0-9.8,4.4-9.8,9.8v19.7c0,5.4,4.4,9.8,9.8,9.8c5.4,0,9.8-4.4,9.8-9.8v-19.7
		C909.8,1012.7,905.4,1008.3,900,1008.3z"/>
	<path class="st0" d="M901.1,732.6c-0.4,0-0.7,0-1.1,0c-20.8,0-40.4,8-55.3,22.7c-15.1,14.9-23.5,34.8-23.5,56.1
		c0,5.4,4.4,9.8,9.8,9.8c5.4,0,9.8-4.4,9.8-9.8c0-15.9,6.3-30.9,17.6-42.1c11.4-11.2,26.5-17.4,42.3-17
		c31.1,0.4,57.8,27.1,58.2,58.2c0.3,20.5-9.8,39.4-27.1,50.5c-26.2,16.9-41.8,46.7-41.8,79.9v28c0,5.4,4.4,9.8,9.8,9.8
		c5.4,0,9.8-4.4,9.8-9.8v-28c0-26,12.6-50.3,32.8-63.3c23-14.8,36.5-40,36.1-67.3C978.2,768.1,943.3,733.2,901.1,732.6z"/>
</g>
</svg>
