<?xml version="1.0" encoding="utf-8"?>
<!-- Generator: Adobe Illustrator 19.2.1, SVG Export Plug-In . SVG Version: 6.00 Build 0)  -->
<svg version="1.1" id="Capa_1" xmlns="http://www.w3.org/2000/svg" xmlns:xlink="http://www.w3.org/1999/xlink" x="0px" y="0px"
	 viewBox="0 0 1800 1800" style="enable-background:new 0 0 1800 1800;" xml:space="preserve">
<style type="text/css">
	.st0{fill:#D80027;}
</style>
<g>
	<g>
		<path class="st0" d="M908,660c62,0,120.2,24.1,164,68c81.1,81.1,90.5,211.2,21.9,302.8l-34,34V996h-16v88l8,8h88v-16h-68.7
			l34.3-34.3l0.7-0.8c73.7-98,63.8-237.3-23.1-324.2C1036.5,669.8,974.2,644,908,644V660z"/>
		<path class="st0" d="M706,769.3l34-34V804h16v-88l-8-8h-88v16h68.7l-34.3,34.3l-0.7,0.8c-73.7,98-63.8,237.3,23.1,324.2
			c46.8,46.8,109.1,72.6,175.4,72.6v-16c-62,0-120.2-24.1-164-68C646.9,991,637.5,860.9,706,769.3z"/>
	</g>
</g>
</svg>
