<?xml version="1.0" encoding="utf-8"?>
<!-- Generator: Adobe Illustrator 19.2.1, SVG Export Plug-In . SVG Version: 6.00 Build 0)  -->
<svg version="1.1" id="Layer_1" xmlns="http://www.w3.org/2000/svg" xmlns:xlink="http://www.w3.org/1999/xlink" x="0px" y="0px"
	 viewBox="0 0 85.2 76.7" style="enable-background:new 0 0 85.2 76.7;" xml:space="preserve">
<style type="text/css">
	.st0{fill:#F7B239;}
	.st1{fill:#2BA5F7;}
	.st2{fill:#2197D8;}
	.st3{fill:#E09B2D;}
	.st4{fill:#666666;}
	.st5{fill:#4D4D4D;}
	.st6{fill:#F95428;}
</style>
<rect x="63.4" y="40.6" class="st0" width="17.2" height="19.8"/>
<rect x="9.9" y="29.6" class="st1" width="57.8" height="41.8"/>
<rect x="9.9" y="38.9" class="st2" width="5" height="32.5"/>
<path class="st1" d="M85.2,35.6v29.9h-5.6c-1.7,0-3.2-1.4-3.2-3.2v-1.9V40.6v-1.9c0-1.7,1.4-3.2,3.2-3.2L85.2,35.6L85.2,35.6z"/>
<path class="st2" d="M76.5,57.4v3v1.9c0,1.7,1.4,3.2,3.2,3.2h5.6v-4.9h-5.6C77.9,60.5,76.5,59.1,76.5,57.4z"/>
<polygon class="st3" points="73,40.6 73,55.2 67.7,55.2 67.7,60.4 73,60.4 76.5,60.4 76.5,55.2 76.5,40.6 "/>
<path class="st4" d="M47.6,29.6c-0.9-1.8-1.4-3.9-1.4-6c0-7.4,6-13.4,13.4-13.4c7.4,0,13.4,6,13.4,13.4c0,4.3-2,8.1-5.2,10.6
	c-2.3,1.7-5.1,2.8-8.2,2.8C54.3,37,49.8,34,47.6,29.6z"/>
<rect x="20.9" y="52.2" class="st4" width="35.8" height="9.4"/>
<rect x="20.9" y="52.2" class="st5" width="4.5" height="9.4"/>
<g>
	<path class="st6" d="M50.7,42.7c1.6,0,3,1.3,3,3c0,1.6-1.3,3-3,3c-1.6,0-3-1.3-3-3C47.7,44,49,42.7,50.7,42.7z"/>
	<path class="st6" d="M40,42.7c1.6,0,3,1.3,3,3c0,1.6-1.3,3-3,3c-1.6,0-3-1.3-3-3C37.1,44,38.4,42.7,40,42.7z"/>
</g>
<path class="st4" d="M39.6,23.6c0,2.1-0.3,4.1-0.9,6c-2.5,8-10,13.8-18.9,13.8c-3.6,0-7-1-10-2.7C4,37.3,0.1,30.9,0.1,23.6
	c0-10.9,8.9-19.8,19.8-19.8S39.6,12.7,39.6,23.6z"/>
<path class="st6" d="M19.9,17.7c3.2,0,5.9,2.6,5.9,5.9c0,3.2-2.6,5.9-5.9,5.9c-3.2,0-5.9-2.6-5.9-5.9C14,20.4,16.6,17.7,19.9,17.7z"
	/>
<g>
	<path class="st5" d="M27.3,17.7c-0.4,0-0.8-0.1-1-0.4c-0.6-0.6-0.6-1.5,0-2.1l3.3-3.3c0.6-0.6,1.5-0.6,2.1,0c0.6,0.6,0.6,1.5,0,2.1
		l-3.3,3.3C28,17.5,27.7,17.7,27.3,17.7z"/>
	<path class="st5" d="M9.1,35.9c-0.4,0-0.8-0.1-1-0.4c-0.6-0.6-0.6-1.5,0-2.1l3.3-3.3c0.6-0.6,1.5-0.6,2.1,0c0.6,0.6,0.6,1.5,0,2.1
		l-3.3,3.3C9.8,35.7,9.5,35.9,9.1,35.9z"/>
	<path class="st5" d="M30.6,35.9c-0.4,0-0.8-0.1-1-0.4l-3.3-3.3c-0.6-0.6-0.6-1.5,0-2.1c0.6-0.6,1.5-0.6,2.1,0l3.3,3.3
		c0.6,0.6,0.6,1.5,0,2.1C31.4,35.7,31,35.9,30.6,35.9z"/>
	<path class="st5" d="M12.4,17.7c-0.4,0-0.8-0.1-1-0.4L8,13.9c-0.6-0.6-0.6-1.5,0-2.1c0.6-0.6,1.5-0.6,2.1,0l3.3,3.3
		c0.6,0.6,0.6,1.5,0,2.1C13.2,17.5,12.8,17.7,12.4,17.7z"/>
	<path class="st5" d="M64.9,30.5c-0.4,0-0.8-0.1-1-0.4l-1.7-1.7c-0.6-0.6-0.6-1.5,0-2.1c0.6-0.6,1.5-0.6,2.1,0l1.7,1.7
		c0.6,0.6,0.6,1.5,0,2.1C65.6,30.3,65.3,30.5,64.9,30.5z"/>
	<path class="st5" d="M55.8,21.4c-0.4,0-0.8-0.1-1-0.4l-1.7-1.7c-0.6-0.6-0.6-1.5,0-2.1c0.6-0.6,1.5-0.6,2.1,0l1.7,1.7
		c0.6,0.6,0.6,1.5,0,2.1C56.6,21.2,56.2,21.4,55.8,21.4z"/>
	<path class="st5" d="M54.2,30.5c-0.4,0-0.8-0.1-1-0.4c-0.6-0.6-0.6-1.5,0-2.1l1.7-1.7c0.6-0.6,1.5-0.6,2.1,0c0.6,0.6,0.6,1.5,0,2.1
		L55.2,30C54.9,30.3,54.5,30.5,54.2,30.5z"/>
	<path class="st5" d="M63.2,21.4c-0.4,0-0.8-0.1-1-0.4c-0.6-0.6-0.6-1.5,0-2.1l1.7-1.7c0.6-0.6,1.5-0.6,2.1,0c0.6,0.6,0.6,1.5,0,2.1
		L64.3,21C64,21.2,63.6,21.4,63.2,21.4z"/>
</g>
<circle class="st6" cx="59.5" cy="23.6" r="1.5"/>
</svg>
